<svg width="117" height="117" viewBox="0 0 117 117" fill="none" xmlns="http://www.w3.org/2000/svg">
<circle cx="58.5" cy="58.5" r="58.5" fill="#3BC53D" fill-opacity="0.17"/>
<path fill-rule="evenodd" clip-rule="evenodd" d="M60.0003 25.1666C57.5614 25.1666 55.2211 26.1348 53.4945 27.8615L50.741 30.6149C50.1688 31.1793 49.3988 31.4979 48.595 31.5029H44.707C43.4982 31.5025 42.3012 31.7403 41.1843 32.2026C40.0675 32.665 39.0527 33.343 38.198 34.1977C37.3433 35.0524 36.6654 36.0672 36.203 37.184C35.7406 38.3009 35.5028 39.4979 35.5032 40.7066V44.5978C35.4982 45.4015 35.1796 46.1715 34.6152 46.7438L31.8618 49.4972C30.1363 51.2227 29.167 53.5629 29.167 56.003C29.167 58.4432 30.1363 60.7834 31.8618 62.5089L34.6152 65.2623C35.1796 65.8345 35.4982 66.6046 35.5032 67.4083V71.2995C35.5032 73.7396 36.4726 76.0799 38.198 77.8053C39.9235 79.5308 42.2637 80.5001 44.7039 80.5001H48.595C49.3998 80.5001 50.1737 80.8208 50.741 81.3881L53.4945 84.1415C55.2199 85.867 57.5601 86.8363 60.0003 86.8363C62.4404 86.8363 64.7807 85.867 66.5061 84.1415L69.2595 81.3881C69.8318 80.8237 70.6018 80.5051 71.4055 80.5001H75.2967C77.7369 80.5001 80.0771 79.5308 81.8026 77.8053C83.528 76.0799 84.4974 73.7396 84.4974 71.2995V67.4083C84.4974 66.6035 84.818 65.8296 85.3854 65.2623L88.1388 62.5089C89.8642 60.7834 90.8336 58.4432 90.8336 56.003C90.8336 53.5629 89.8642 51.2227 88.1388 49.4972L85.3854 46.7438C84.821 46.1715 84.5023 45.4015 84.4974 44.5978V40.7066C84.4974 38.2665 83.528 35.9262 81.8026 34.2008C80.0771 32.4753 77.7369 31.506 75.2967 31.506H71.4055C70.6018 31.501 69.8318 31.1823 69.2595 30.618L66.5061 27.8645C65.6524 27.0091 64.6383 26.3304 63.522 25.8675C62.4056 25.4045 61.2088 25.1664 60.0003 25.1666ZM71.3562 49.0008C71.6574 48.718 71.8986 48.3775 72.0657 47.9996C72.2327 47.6217 72.3221 47.2141 72.3285 46.801C72.3349 46.3879 72.2582 45.9777 72.103 45.5949C71.9478 45.212 71.7172 44.8642 71.425 44.5721C71.1327 44.2801 70.7848 44.0498 70.4018 43.8948C70.0188 43.7399 69.6085 43.6635 69.1954 43.6702C68.7823 43.6769 68.3748 43.7666 67.997 43.9339C67.6193 44.1012 67.279 44.3427 66.9964 44.644L53.8829 57.7575L49.9455 53.82C49.3674 53.2415 48.5831 52.9163 47.7652 52.916C46.9473 52.9157 46.1627 53.2404 45.5842 53.8185C45.0056 54.3967 44.6804 55.181 44.6801 55.9989C44.6798 56.8168 45.0045 57.6013 45.5826 58.1799L51.703 64.2972C52.2812 64.8752 53.0654 65.2 53.8829 65.2C54.7005 65.2 55.4847 64.8752 56.0629 64.2972L71.3562 49.0039V49.0008Z" fill="#3BC53D"/>
</svg>
