<svg width="117" height="117" viewBox="0 0 117 117" fill="none" xmlns="http://www.w3.org/2000/svg">
<circle cx="58.5" cy="58.5" r="58.5" fill="#0C58D3" fill-opacity="0.12"/>
<path d="M29.771 26.4967L31.7015 33.0358H83.137C89.5954 33.0358 94.5269 39.0625 92.6666 45.3559L86.8576 65.0119C85.6221 69.1993 81.6944 71.9968 77.3279 71.9968H45.1904C40.8239 71.9968 36.8998 69.1993 35.6607 65.0119L24.7201 27.9884C24.6117 27.6541 24.5714 27.3014 24.6015 26.9512C24.6316 26.601 24.7315 26.2604 24.8954 25.9494C25.0592 25.6385 25.2837 25.3635 25.5555 25.1407C25.8274 24.9179 26.1411 24.7518 26.4782 24.6521C26.8152 24.5525 27.1688 24.5214 27.5181 24.5606C27.8674 24.5999 28.2053 24.7087 28.5119 24.8806C28.8185 25.0525 29.0875 25.2841 29.3031 25.5616C29.5188 25.8392 29.6802 26.1571 29.771 26.4967ZM69.6832 48.0937C70.08 47.5272 70.2379 46.8273 70.1228 46.1453C70.0078 45.4632 69.6289 44.8539 69.0681 44.449C68.5073 44.0441 67.8097 43.8762 67.1262 43.9815C66.4426 44.0869 65.8279 44.457 65.415 45.0119L59.4024 53.3341L57.2999 50.9333C57.0752 50.6631 56.7987 50.4407 56.4867 50.2791C56.1747 50.1175 55.8335 50.0199 55.4833 49.9923C55.133 49.9646 54.7807 50.0073 54.4472 50.1179C54.1137 50.2285 53.8057 50.4048 53.5414 50.6363C53.2771 50.8678 53.0618 51.1499 52.9082 51.4659C52.7546 51.7819 52.6658 52.1255 52.6471 52.4764C52.6284 52.8273 52.6801 53.1783 52.7992 53.5089C52.9183 53.8395 53.1024 54.1429 53.3406 54.4012L56.9699 58.5465C57.3083 58.9333 57.7295 59.2388 58.2022 59.4404C58.6749 59.642 59.1869 59.7344 59.7003 59.7108C60.2136 59.6872 60.715 59.5481 61.1672 59.304C61.6194 59.0599 62.0108 58.717 62.3122 58.3008L69.6832 48.0937ZM46.5488 77.2618C44.4542 77.2618 42.4455 78.0938 40.9644 79.5749C39.4833 81.056 38.6513 83.0648 38.6513 85.1593C38.6513 87.2538 39.4833 89.2626 40.9644 90.7437C42.4455 92.2247 44.4542 93.0568 46.5488 93.0568C48.6433 93.0568 50.6521 92.2247 52.1331 90.7437C53.6142 89.2626 54.4463 87.2538 54.4463 85.1593C54.4463 83.0648 53.6142 81.056 52.1331 79.5749C50.6521 78.0938 48.6433 77.2618 46.5488 77.2618ZM74.6288 77.2618C72.5342 77.2618 70.5254 78.0938 69.0444 79.5749C67.5633 81.056 66.7313 83.0648 66.7313 85.1593C66.7313 87.2538 67.5633 89.2626 69.0444 90.7437C70.5254 92.2247 72.5342 93.0568 74.6288 93.0568C76.7233 93.0568 78.7321 92.2247 80.2131 90.7437C81.6942 89.2626 82.5263 87.2538 82.5263 85.1593C82.5263 83.0648 81.6942 81.056 80.2131 79.5749C78.7321 78.0938 76.7233 77.2618 74.6288 77.2618Z" fill="#0C58D3"/>
</svg>
