<svg width="188" height="44" viewBox="0 0 188 44" fill="none" xmlns="http://www.w3.org/2000/svg">
<path d="M187.611 13.9893L184.038 35.5114H179.162L173.277 24.2039H173.151L171.26 35.5114H165.417L168.99 13.9893H173.95L179.751 25.2547H179.919L181.769 13.9893H187.611Z" fill="#FF5F3F"/>
<path d="M164.437 25.1287C164.045 27.4687 163.267 29.4303 162.104 31.0137C160.941 32.597 159.529 33.7915 157.869 34.5972C156.208 35.4029 154.432 35.8057 152.541 35.8057C150.523 35.8057 148.772 35.3678 147.286 34.4921C145.801 33.6163 144.719 32.3343 144.039 30.6458C143.36 28.9574 143.223 26.8942 143.629 24.4561C144.008 22.1162 144.778 20.1475 145.941 18.5502C147.104 16.9528 148.523 15.7443 150.197 14.9246C151.872 14.1049 153.662 13.6951 155.567 13.6951C157.571 13.6951 159.312 14.1364 160.79 15.0192C162.276 15.9019 163.354 17.1945 164.027 18.8969C164.707 20.5994 164.843 22.6766 164.437 25.1287ZM158.552 24.4561C158.748 23.2231 158.762 22.1862 158.594 21.3455C158.426 20.4978 158.072 19.8603 157.533 19.4329C156.993 18.9985 156.268 18.7814 155.357 18.7814C154.32 18.7814 153.403 19.0336 152.604 19.538C151.805 20.0424 151.143 20.7675 150.618 21.7133C150.092 22.6591 149.724 23.7976 149.514 25.1287C149.29 26.3757 149.269 27.4126 149.451 28.2393C149.64 29.066 150.012 29.686 150.565 30.0994C151.126 30.5127 151.854 30.7194 152.751 30.7194C153.774 30.7194 154.678 30.4742 155.462 29.9838C156.254 29.4934 156.909 28.7823 157.427 27.8505C157.953 26.9187 158.328 25.7873 158.552 24.4561Z" fill="#FF5F3F"/>
<path d="M124.745 18.6972L125.544 13.9893H144.249L143.451 18.6972H136.977L134.203 35.5114H128.444L131.218 18.6972H124.745Z" fill="white"/>
<path d="M102.503 35.5114L106.076 13.9893H115.366C116.963 13.9893 118.312 14.28 119.412 14.8615C120.511 15.443 121.303 16.2802 121.787 17.3731C122.27 18.466 122.386 19.7761 122.133 21.3034C121.881 22.8447 121.324 24.1443 120.462 25.2022C119.608 26.2531 118.518 27.0518 117.194 27.5982C115.877 28.1377 114.399 28.4074 112.759 28.4074H107.211L107.967 23.8676H112.339C113.026 23.8676 113.628 23.7835 114.147 23.6154C114.665 23.4402 115.085 23.167 115.408 22.7957C115.73 22.4174 115.94 21.9199 116.038 21.3034C116.136 20.6869 116.087 20.186 115.891 19.8007C115.695 19.4083 115.369 19.1211 114.914 18.9389C114.458 18.7498 113.894 18.6552 113.222 18.6552H111.162L108.346 35.5114H102.503ZM116.753 25.6331L120.494 35.5114H114.147L110.532 25.6331H116.753Z" fill="white"/>
<path d="M101.523 25.1287C101.131 27.4687 100.353 29.4303 99.1899 31.0137C98.027 32.597 96.6153 33.7915 94.9549 34.5972C93.2945 35.4029 91.5185 35.8057 89.6269 35.8057C87.6092 35.8057 85.8577 35.3678 84.3725 34.4921C82.8872 33.6163 81.8048 32.3343 81.1252 30.6458C80.4457 28.9574 80.309 26.8942 80.7154 24.4561C81.0937 22.1162 81.8643 20.1475 83.0273 18.5502C84.1903 16.9528 85.609 15.7443 87.2834 14.9246C88.9578 14.1049 90.7478 13.6951 92.6534 13.6951C94.6571 13.6951 96.3981 14.1364 97.8763 15.0192C99.3616 15.9019 100.44 17.1945 101.113 18.8969C101.793 20.5994 101.929 22.6766 101.523 25.1287ZM95.638 24.4561C95.8341 23.2231 95.8481 22.1862 95.68 21.3455C95.5118 20.4978 95.158 19.8603 94.6186 19.4329C94.0791 18.9985 93.354 18.7814 92.4433 18.7814C91.4064 18.7814 90.4886 19.0336 89.6899 19.538C88.8913 20.0424 88.2292 20.7675 87.7038 21.7133C87.1783 22.6591 86.8105 23.7976 86.6003 25.1287C86.3761 26.3757 86.3551 27.4126 86.5373 28.2393C86.7264 29.066 87.0978 29.686 87.6512 30.0994C88.2117 30.5127 88.9403 30.7194 89.8371 30.7194C90.8599 30.7194 91.7637 30.4742 92.5483 29.9838C93.34 29.4934 93.9951 28.7823 94.5135 27.8505C95.0389 26.9187 95.4138 25.7873 95.638 24.4561Z" fill="white"/>
<path d="M59.5295 35.5114L63.1026 13.9893H72.3924C73.9897 13.9893 75.3349 14.3045 76.4278 14.9351C77.5207 15.5656 78.3054 16.4518 78.7818 17.5938C79.2582 18.7358 79.3703 20.0704 79.118 21.5977C78.8658 23.153 78.3054 24.4946 77.4366 25.6226C76.5749 26.7435 75.475 27.6087 74.1368 28.2182C72.8057 28.8207 71.3135 29.122 69.6601 29.122H64.1114L64.868 24.5822H69.2397C69.9403 24.5822 70.5568 24.4631 71.0893 24.2249C71.6217 23.9797 72.0526 23.6364 72.3819 23.195C72.7111 22.7466 72.9248 22.2142 73.0229 21.5977C73.121 20.9811 73.0755 20.4557 72.8863 20.0213C72.7041 19.58 72.3889 19.2437 71.9405 19.0125C71.4991 18.7743 70.9351 18.6552 70.2486 18.6552H68.1888L65.3725 35.5114H59.5295Z" fill="white"/>
<path d="M53.8601 20.715C53.9231 20.0214 53.755 19.4784 53.3557 19.0861C52.9563 18.6868 52.2838 18.4871 51.338 18.4871C50.7355 18.4871 50.231 18.5572 49.8247 18.6973C49.4254 18.8374 49.1136 19.0301 48.8894 19.2753C48.6722 19.5205 48.5356 19.8042 48.4796 20.1265C48.4165 20.3787 48.42 20.6099 48.4901 20.8201C48.5671 21.0232 48.7108 21.2089 48.9209 21.377C49.1381 21.5452 49.4219 21.6958 49.7722 21.8289C50.1295 21.962 50.5533 22.0811 51.0437 22.1862L52.7251 22.5645C53.8741 22.8168 54.8374 23.1495 55.6151 23.5629C56.3997 23.9692 57.0163 24.4526 57.4646 25.0131C57.913 25.5736 58.2073 26.2006 58.3474 26.8942C58.4945 27.5878 58.498 28.3444 58.3579 29.1641C58.1197 30.5793 57.5697 31.7773 56.708 32.7581C55.8463 33.7389 54.7218 34.4851 53.3347 34.9965C51.9475 35.5079 50.3431 35.7637 48.5216 35.7637C46.658 35.7637 45.0747 35.4869 43.7716 34.9335C42.4755 34.373 41.5367 33.5183 40.9552 32.3693C40.3807 31.2133 40.2406 29.7386 40.5349 27.9451H46.0835C45.9995 28.6036 46.0695 29.1571 46.2937 29.6055C46.5179 30.0538 46.8787 30.3936 47.3761 30.6248C47.8736 30.856 48.4936 30.9716 49.2362 30.9716C49.8667 30.9716 50.4062 30.8946 50.8546 30.7404C51.3029 30.5863 51.6567 30.3726 51.916 30.0994C52.1752 29.8262 52.3328 29.5144 52.3889 29.1641C52.4449 28.8418 52.3889 28.5546 52.2207 28.3024C52.0526 28.0502 51.7478 27.8225 51.3064 27.6193C50.8651 27.4161 50.2591 27.2305 49.4884 27.0623L47.4287 26.5999C45.6001 26.1796 44.22 25.486 43.2882 24.5192C42.3564 23.5524 42.0271 22.2283 42.3004 20.5468C42.5245 19.1737 43.0885 17.9757 43.9923 16.9528C44.9031 15.9229 46.059 15.1243 47.4602 14.5568C48.8684 13.9823 50.4272 13.6951 52.1366 13.6951C53.8741 13.6951 55.3278 13.9858 56.4978 14.5673C57.6748 15.1488 58.519 15.965 59.0304 17.0159C59.5489 18.0668 59.689 19.2998 59.4508 20.715H53.8601Z" fill="white"/>
<path d="M10.9027 29.2036L12.4602 44.0001L3.11504 37.77V33.0974L0 30.7611L1.9469 14.0178L14.7965 9.34521V30.7611L14.0177 30.3718L13.6283 25.3098L5.45133 20.6373L5.06195 25.6992L10.9027 29.2036Z" fill="white"/>
<path d="M18.6902 29.2036L17.1327 44.0001L26.4779 37.77V33.0974L29.5929 30.7611L27.646 14.0178L14.7964 9.34521V30.7611L15.5752 30.3718L15.9646 25.3098L24.1416 20.6373L24.5309 25.6992L18.6902 29.2036Z" fill="white"/>
<path d="M14.7965 8.56641L4.2832 12.4602L7.00887 8.56641L14.7965 4.67261V8.56641Z" fill="#FF5F3F"/>
<path d="M14.7965 8.56641L25.3098 12.4602L22.5841 8.56641L14.7965 4.67261V8.56641Z" fill="#FF5F3F"/>
<path d="M14.7964 3.89381L12.4601 5.06195L12.8735 3.11504L14.7964 0V3.89381Z" fill="white"/>
<path d="M14.7964 3.89381L17.1326 5.06195L16.7192 3.11504L14.7964 0V3.89381Z" fill="white"/>
</svg>
