<svg width="127" height="30" viewBox="0 0 127 30" fill="none" xmlns="http://www.w3.org/2000/svg">
<path d="M36.517 14C36.5597 13.5312 36.446 13.1643 36.1761 12.8991C35.9063 12.6293 35.4517 12.4943 34.8125 12.4943C34.4053 12.4943 34.0644 12.5417 33.7898 12.6364C33.5199 12.7311 33.3092 12.8613 33.1577 13.027C33.0109 13.1927 32.9186 13.3845 32.8807 13.6023C32.8381 13.7727 32.8404 13.929 32.8878 14.071C32.9399 14.2083 33.0369 14.3338 33.179 14.4474C33.3258 14.5611 33.5175 14.6629 33.7543 14.7528C33.9957 14.8428 34.2822 14.9233 34.6136 14.9943L35.75 15.25C36.5265 15.4205 37.1776 15.6454 37.7031 15.9247C38.2334 16.1993 38.6501 16.526 38.9531 16.9048C39.2562 17.2836 39.455 17.7074 39.5497 18.1761C39.6491 18.6449 39.6515 19.1562 39.5568 19.7102C39.3958 20.6667 39.0241 21.4763 38.4418 22.1392C37.8594 22.8021 37.0994 23.3063 36.1619 23.652C35.2244 23.9976 34.1402 24.1705 32.9091 24.1705C31.6496 24.1705 30.5795 23.9834 29.6989 23.6094C28.8229 23.2306 28.1884 22.6529 27.7955 21.8764C27.4072 21.0952 27.3125 20.0985 27.5114 18.8864H31.2614C31.2045 19.3314 31.2519 19.7055 31.4034 20.0085C31.5549 20.3116 31.7988 20.5412 32.1349 20.6974C32.4711 20.8537 32.8902 20.9318 33.392 20.9318C33.8182 20.9318 34.1828 20.8797 34.4858 20.7756C34.7888 20.6714 35.0279 20.527 35.2031 20.3423C35.3783 20.1577 35.4848 19.947 35.5227 19.7102C35.5606 19.4924 35.5227 19.2983 35.4091 19.1278C35.2955 18.9574 35.0895 18.8035 34.7912 18.6662C34.4929 18.5289 34.0833 18.4034 33.5625 18.2898L32.1705 17.9773C30.9347 17.6932 30.0019 17.2244 29.3722 16.571C28.7424 15.9176 28.5199 15.0227 28.7045 13.8864C28.8561 12.9583 29.2372 12.1487 29.848 11.4574C30.4635 10.7614 31.2448 10.2216 32.1918 9.83807C33.1435 9.44981 34.197 9.25568 35.3523 9.25568C36.5265 9.25568 37.509 9.45218 38.2997 9.84517C39.0952 10.2382 39.6657 10.7898 40.0114 11.5C40.3617 12.2102 40.4564 13.0436 40.2955 14H36.517ZM40.3487 24L42.7635 9.45455H49.0419C50.1214 9.45455 51.0305 9.66761 51.7692 10.0938C52.5078 10.5199 53.0381 11.1188 53.3601 11.8906C53.6821 12.6624 53.7578 13.5644 53.5874 14.5966C53.4169 15.6477 53.0381 16.5545 52.451 17.3168C51.8686 18.0743 51.1252 18.6591 50.2209 19.071C49.3213 19.4782 48.3127 19.6818 47.1953 19.6818H43.4453L43.9567 16.6136H46.9112C47.3847 16.6136 47.8014 16.5331 48.1612 16.3722C48.5211 16.2064 48.8123 15.9744 49.0348 15.6761C49.2573 15.3731 49.4018 15.0133 49.468 14.5966C49.5343 14.1799 49.5036 13.8248 49.3757 13.5312C49.2526 13.233 49.0395 13.0057 48.7365 12.8494C48.4382 12.6884 48.0571 12.608 47.593 12.608H46.201L44.2976 24H40.3487ZM68.7294 16.983C68.4643 18.5644 67.9387 19.8902 67.1527 20.9602C66.3667 22.0303 65.4126 22.8376 64.2905 23.3821C63.1683 23.9266 61.968 24.1989 60.6896 24.1989C59.326 24.1989 58.1423 23.9029 57.1385 23.3111C56.1347 22.7192 55.4032 21.8527 54.9439 20.7116C54.4846 19.5705 54.3923 18.1761 54.6669 16.5284C54.9226 14.947 55.4434 13.6165 56.2294 12.5369C57.0154 11.4574 57.9742 10.6406 59.1058 10.0866C60.2375 9.53267 61.4472 9.25568 62.7351 9.25568C64.0893 9.25568 65.2659 9.55398 66.2649 10.1506C67.2687 10.7472 67.9979 11.6207 68.4524 12.7713C68.9117 13.9219 69.004 15.3258 68.7294 16.983ZM64.7521 16.5284C64.8847 15.6951 64.8942 14.9943 64.7805 14.4261C64.6669 13.8532 64.4278 13.4223 64.0632 13.1335C63.6986 12.84 63.2086 12.6932 62.593 12.6932C61.8923 12.6932 61.272 12.8636 60.7322 13.2045C60.1925 13.5455 59.745 14.0355 59.3899 14.6747C59.0348 15.3139 58.7862 16.0833 58.6442 16.983C58.4927 17.8258 58.4785 18.5265 58.6016 19.0852C58.7294 19.6439 58.9804 20.063 59.3544 20.3423C59.7332 20.6217 60.2256 20.7614 60.8317 20.7614C61.523 20.7614 62.1338 20.5956 62.6641 20.2642C63.1991 19.9328 63.6418 19.4522 63.9922 18.8224C64.3473 18.1927 64.6006 17.428 64.7521 16.5284ZM69.3917 24L71.8065 9.45455H78.0849C79.1644 9.45455 80.0759 9.65104 80.8192 10.044C81.5626 10.437 82.0977 11.0028 82.4244 11.7415C82.7511 12.4801 82.8292 13.3655 82.6587 14.3977C82.4883 15.4394 82.1119 16.3177 81.5295 17.0327C80.9518 17.7429 80.2156 18.2827 79.3207 18.652C78.4305 19.0166 77.4315 19.1989 76.3235 19.1989H72.5735L73.0849 16.1307H76.0394C76.5034 16.1307 76.9106 16.0739 77.261 15.9602C77.6114 15.8419 77.8955 15.6572 78.1133 15.4062C78.3311 15.1506 78.4731 14.8144 78.5394 14.3977C78.6057 13.9811 78.5726 13.6425 78.44 13.3821C78.3074 13.117 78.0872 12.9228 77.7795 12.7997C77.4717 12.6719 77.0906 12.608 76.636 12.608H75.244L73.3406 24H69.3917ZM79.0224 17.3239L81.5508 24H77.261L74.8178 17.3239H79.0224ZM84.4237 12.6364L84.9634 9.45455H97.6055L97.0657 12.6364H92.6907L90.8157 24H86.9237L88.7987 12.6364H84.4237Z" fill="black"/>
<path d="M111.249 16.983C110.984 18.5644 110.458 19.8902 109.672 20.9602C108.886 22.0303 107.932 22.8376 106.81 23.3821C105.688 23.9266 104.488 24.1989 103.209 24.1989C101.846 24.1989 100.662 23.9029 99.658 23.3111C98.6542 22.7192 97.9227 21.8527 97.4634 20.7116C97.0041 19.5705 96.9118 18.1761 97.1864 16.5284C97.4421 14.947 97.9629 13.6165 98.7489 12.5369C99.5349 11.4574 100.494 10.6406 101.625 10.0866C102.757 9.53267 103.967 9.25568 105.255 9.25568C106.609 9.25568 107.785 9.55398 108.784 10.1506C109.788 10.7472 110.517 11.6207 110.972 12.7713C111.431 13.9219 111.524 15.3258 111.249 16.983ZM107.272 16.5284C107.404 15.6951 107.414 14.9943 107.3 14.4261C107.186 13.8532 106.947 13.4223 106.583 13.1335C106.218 12.84 105.728 12.6932 105.113 12.6932C104.412 12.6932 103.792 12.8636 103.252 13.2045C102.712 13.5455 102.265 14.0355 101.909 14.6747C101.554 15.3139 101.306 16.0833 101.164 16.983C101.012 17.8258 100.998 18.5265 101.121 19.0852C101.249 19.6439 101.5 20.063 101.874 20.3423C102.253 20.6217 102.745 20.7614 103.351 20.7614C104.042 20.7614 104.653 20.5956 105.184 20.2642C105.719 19.9328 106.161 19.4522 106.512 18.8224C106.867 18.1927 107.12 17.428 107.272 16.5284ZM126.911 9.45455L124.496 24H121.201L117.224 16.358H117.138L115.86 24H111.911L114.326 9.45455H117.678L121.599 17.0682H121.712L122.962 9.45455H126.911Z" fill="#FF5F3F"/>
<path d="M7.36842 19.7368L8.42105 29.7368L2.10526 25.5263V22.3684L0 20.7895L1.31579 9.47369L10 6.31579V20.7895L9.47368 20.5263L9.21053 17.1053L3.68421 13.9474L3.42105 17.3684L7.36842 19.7368Z" fill="#0C0707"/>
<path d="M12.6316 19.7368L11.5789 29.7368L17.8947 25.5263V22.3684L20 20.7895L18.6842 9.47369L10 6.31579V20.7895L10.5263 20.5263L10.7895 17.1053L16.3158 13.9474L16.5789 17.3684L12.6316 19.7368Z" fill="#0C0707"/>
<path d="M10 5.78947L2.89478 8.42105L4.73688 5.78947L10 3.15789V5.78947Z" fill="#FF5F3F"/>
<path d="M10 5.78947L17.1053 8.42105L15.2632 5.78947L10 3.15789V5.78947Z" fill="#FF5F3F"/>
<path d="M9.99997 2.63158L8.42102 3.42105L8.70042 2.10526L9.99997 0V2.63158Z" fill="black"/>
<path d="M9.99997 2.63158L11.5789 3.42105L11.2995 2.10526L9.99997 0V2.63158Z" fill="black"/>
</svg>
